<?xml version="1.0"?>
<svg width="640" height="480" xmlns="http://www.w3.org/2000/svg" xmlns:svg="http://www.w3.org/2000/svg">
 <!-- Created with SVG-edit - http://svg-edit.googlecode.com/ -->
 <g>
  <title>Layer 1</title>
  <polygon stroke-width="5" stroke="#000000" points="492,39.74235916137695 518.3933563232422,115.67266845703125 598.7633666992188,117.31048583984375 534.7053375244141,165.8758087158203 557.9833831787109,242.81834411621094 492,196.90306091308594 426.01661682128906,242.81834411621094 449.29466247558594,165.8758087158203 385.2366409301758,117.31048583984375 465.6066436767578,115.67266845703125 492,39.74235916137695 518.3933563232422,115.67266845703125 " strokeWidth="5" strokecolor="#000000" fill="#FF0000" orient="point" r2="44.903056" r="112.25764" point="5" shape="star" id="svg_1" cy="87" cx="182"/>
  <polygon stroke-width="5" stroke="#000000" points="142,52.4084769807652 160.24286117344727,104.89085570320165 215.79392357670866,106.02290076762152 171.51756943068347,139.5908396929514 187.60715293361818,192.77286074199588 142,161.0366092076939 96.39284706638185,192.77286074199588 112.48243056931653,139.5908396929514 68.20607642329134,106.02290076762154 123.75713882655273,104.89085570320165 141.99999999999997,52.4084769807652 160.24286117344727,104.89085570320164 " strokeWidth="5" strokecolor="#000000" fill="#FF0000" orient="point" r2="31.036609" r="77.591523" point="5" shape="star" id="svg_2" cy="130" cx="142"/>
  <polygon stroke-width="5" stroke="#000000" points="181,318.13787754334294 198.1309124123005,367.4213218745344 250.29599635349913,368.48436591466447 208.71839854139967,400.0062536341342 223.82728103075124,449.94669531366407 181,420.14484898266284 138.17271896924876,449.94669531366407 153.28160145860033,400.0062536341342 111.70400364650087,368.48436591466447 163.8690875876995,367.4213218745344 181,318.13787754334294 198.1309124123005,367.4213218745344 " strokeWidth="5" strokecolor="#000000" fill="#FF0000" orient="point" r2="29.144849" r="72.862122" point="5" shape="star" id="svg_3" cy="391" cx="181"/>
  <polygon stroke-width="5" stroke="#000000" points="488,257.372421696035 510.7185061967227,322.7306588107185 579.8982879998061,324.1404361787789 524.7593151999224,365.94382552848845 544.7962654918068,432.17335297320363 488,392.651031321586 431.20373450819324,432.17335297320363 451.2406848000776,365.94382552848845 396.10171200019386,324.1404361787789 465.2814938032773,322.7306588107185 488,257.372421696035 510.71850619672267,322.7306588107185 " strokeWidth="5" strokecolor="#000000" fill="#FF0000" orient="point" r2="38.651031" r="96.627578" point="5" shape="star" id="svg_4" cy="354" cx="488"/>
  <polygon stroke-width="5" stroke="#000000" points="314,104.65625 334.0655212402344,162.38218688964844 395.1667175292969,163.62733459472656 346.4667053222656,200.549072265625 364.1637878417969,259.0445556640625 314,224.1374969482422 263.8362121582031,259.0445556640625 281.5332946777344,200.549072265625 232.83326721191406,163.62733459472656 293.9344787597656,162.38218688964844 314,104.65625 334.0655212402344,162.38218688964844 " strokeWidth="5" strokecolor="#000000" fill="#FF0000" orient="point" r2="34.1375" r="85.343749" point="5" shape="star" id="svg_5" cy="194" cx="314"/>
  <ellipse stroke="#000000" ry="9" rx="11.5" id="svg_6" cy="387" cx="165.5" stroke-linecap="null" stroke-linejoin="null" stroke-dasharray="null" stroke-width="5" fill="#000000"/>
  <ellipse ry="12" rx="14" id="svg_7" cy="121" cx="128" stroke-linecap="null" stroke-linejoin="null" stroke-dasharray="null" stroke-width="5" stroke="#000000" fill="#000000"/>
  <ellipse ry="11" rx="20" id="svg_8" cy="178" cx="300" stroke-linecap="null" stroke-linejoin="null" stroke-dasharray="null" stroke-width="5" stroke="#000000" fill="#FF0000"/>
  <ellipse ry="24" rx="7" id="svg_9" cy="148" cx="509" stroke-linecap="null" stroke-linejoin="null" stroke-dasharray="null" stroke-width="5" stroke="#000000" fill="#FF0000"/>
  <ellipse ry="15" rx="13" id="svg_10" cy="344" cx="473" stroke-linecap="null" stroke-linejoin="null" stroke-dasharray="null" stroke-width="5" stroke="#000000" fill="#FF0000"/>
  <ellipse ry="17" rx="13" id="svg_11" cy="346" cx="508" stroke-linecap="null" stroke-linejoin="null" stroke-dasharray="null" stroke-width="5" stroke="#000000" fill="#FF0000"/>
  <ellipse ry="12" rx="17" id="svg_12" cy="178" cx="340" stroke-linecap="null" stroke-linejoin="null" stroke-dasharray="null" stroke-width="5" stroke="#000000" fill="#000000"/>
  <ellipse ry="8" rx="8" id="svg_13" cy="179" cx="344" stroke-linecap="null" stroke-linejoin="null" stroke-dasharray="null" stroke-width="5" stroke="#000000" fill="#000000"/>
  <ellipse ry="17" rx="16" id="svg_14" cy="147" cx="464" stroke-linecap="null" stroke-linejoin="null" stroke-dasharray="null" stroke-width="5" stroke="#000000" fill="#000000"/>
  <ellipse ry="6" rx="7" id="svg_15" cy="178" cx="301" stroke-linecap="null" stroke-linejoin="null" stroke-dasharray="null" stroke-width="5" stroke="#000000" fill="#000000"/>
  <ellipse ry="5" rx="6" id="svg_16" cy="387" cx="197" stroke-linecap="null" stroke-linejoin="null" stroke-dasharray="null" stroke-width="5" stroke="#000000" fill="#000000"/>
 </g>
</svg>